<?xml version="1.0" encoding="iso-8859-1"?>
<!-- Generator: Adobe Illustrator 17.0.0, SVG Export Plug-In . SVG Version: 6.00 Build 0)  -->
<!DOCTYPE svg PUBLIC "-//W3C//DTD SVG 1.1//EN" "http://www.w3.org/Graphics/SVG/1.1/DTD/svg11.dtd">
<svg version="1.1" xmlns="http://www.w3.org/2000/svg" xmlns:xlink="http://www.w3.org/1999/xlink" x="0px" y="0px" width="512px"
	 height="512px" viewBox="0 0 512 512" style="enable-background:new 0 0 512 512;" xml:space="preserve">
<g id="facebook" style="display:none;">
	<path style="display:inline;fill:#F27A22;" d="M295.394,512H189.491V255.99H136.55v-88.243h52.941v-52.961
		C189.491,42.81,219.373,0,304.255,0h70.685v88.243h-44.163c-33.054,0-35.248,12.336-35.248,35.342l-0.135,44.163h80.056
		l-9.371,88.243h-70.685V512z"/>
</g>
<g id="twitter" style="display:none;">
	<path style="display:inline;fill:#F27A22;" d="M512,97.209c-18.838,8.355-39.082,14.001-60.33,16.54
		c21.685-13,38.342-33.585,46.185-58.115c-20.297,12.039-42.778,20.78-66.705,25.49c-19.16-20.415-46.46-33.17-76.672-33.17
		c-58.01,0-105.044,47.03-105.044,105.04c0,8.233,0.929,16.25,2.72,23.939c-87.3-4.381-164.701-46.2-216.509-109.752
		c-9.042,15.514-14.222,33.558-14.222,52.809c0,36.444,18.544,68.595,46.73,87.432c-17.219-0.546-33.416-5.271-47.578-13.139
		c-0.01,0.439-0.01,0.877-0.01,1.321c0,50.894,36.209,93.347,84.261,103c-8.814,2.4-18.094,3.685-27.674,3.685
		c-6.769,0-13.349-0.66-19.764-1.885c13.368,41.73,52.16,72.102,98.126,72.947c-35.95,28.175-81.242,44.967-130.457,44.967
		c-8.479,0-16.84-0.497-25.058-1.47c46.486,29.805,101.701,47.197,161.021,47.197c193.211,0,298.868-160.062,298.868-298.872
		c0-4.554-0.102-9.084-0.305-13.59C480.11,136.774,497.917,118.274,512,97.209z"/>
</g>
<g id="linkedin" style="display:none;">
	<g style="display:inline;">
		<path style="fill:#F27A22;" d="M61.333,125.333h-0.667c-18,0-32.625-5.458-43.833-16.333S0,84.542,0,68.333
			C0,51.875,5.709,38.292,17.167,27.5S43.542,11.333,62,11.333c12.208,0,23,2.5,32.333,7.5s16.458,11.792,21.333,20.333
			c4.875,8.542,7.458,18.292,7.667,29.167c0,10.667-2.458,20.292-7.333,28.833c-4.875,8.542-12.125,15.375-21.667,20.5
			S73.792,125.333,61.333,125.333z M116.333,500.667h-110V170.333h110V500.667z M512,500.667H402.333V324
			c0-23.333-4.5-41.625-13.5-54.833c-9-13.208-23.042-19.833-42.167-19.833c-9.542,0-18.292,2.042-26.167,6.167
			c-7.875,4.125-14.167,9-18.833,14.667c-4.667,5.667-8.458,12.042-11.333,19.167c-2.458,6-3.667,15-3.667,27v184.333H177
			c0.875-199.542,0.875-309.667,0-330.333h109.667v47c2.458-3.792,4.833-7.208,7.167-10.333c2.333-3.125,5.292-6.625,8.833-10.5
			c3.542-3.875,7.167-7.333,10.833-10.333c3.667-3,8.125-6,13.333-9c5.208-3,10.667-5.542,16.333-7.667
			c5.667-2.125,12.167-3.792,19.5-5c7.333-1.208,15-1.833,23-1.833c18.208,0,34.958,3.042,50.167,9.167
			c15.208,6.125,28.542,15.125,40,27c11.458,11.875,20.333,27.458,26.667,46.667c6.333,19.208,9.5,41.167,9.5,65.833V500.667z"/>
	</g>
</g>
<g id="youtube" style="display:none;">
	<g id="Lozenge" style="display:inline;">
		<g>
			<path d="M506.887,153.632c0,0-5.003-35.282-20.354-50.82c-19.469-20.393-41.293-20.494-51.301-21.687
				c-71.647-5.179-179.121-5.179-179.121-5.179h-0.223c0,0-107.472,0-179.121,5.179c-10.009,1.194-31.824,1.295-51.301,21.687
				c-15.351,15.537-20.346,50.82-20.346,50.82S0,195.065,0,236.497v38.843c0,41.432,5.12,82.865,5.12,82.865
				s4.995,35.283,20.346,50.82c19.477,20.393,45.06,19.748,56.455,21.885C122.883,434.839,256,436.054,256,436.054
				s107.585-0.162,179.232-5.341c10.008-1.194,31.831-1.295,51.301-21.687c15.351-15.537,20.354-50.82,20.354-50.82
				S512,316.773,512,275.341v-38.843C512,195.065,506.887,153.632,506.887,153.632z M203.142,322.412l-0.023-143.858l138.345,72.18
				L203.142,322.412z"/>
		</g>
	</g>
</g>
<g id="mail" style="display:none;">
	<g style="display:inline;">
		<g>
			<path d="M0,128.389v256.164l128.001-128.069L0,128.389z M256.003,392.444L159.331,287.99L12.994,444.631h485.01L351.667,286.914
				L256.003,392.444z M510.801,67.369H0l256.003,254.2L510.801,67.369z M512,382.589l-0.07-253.071L384.004,256.485L512,382.589z"/>
		</g>
	</g>
</g>
<g id="print" style="display:none;">
	<g style="display:inline;">
		<path d="M85.333,21.333C85.333,9.551,94.872,0,106.666,0h192c5.641,0,11.076,2.257,15.076,6.257l106.667,106.667
			c4,4,6.257,9.422,6.257,15.076v170.667H384V149.333h-85.333c-11.794,0-21.333-9.551-21.333-21.333V42.666H128v256H85.333V21.333z"
			/>
		<path d="M469.333,320H42.667C19.179,320,0,339.192,0,362.667v106.667C0,492.808,19.179,512,42.667,512h426.666
			C492.794,512,512,492.808,512,469.333V362.667C512,339.192,492.794,320,469.333,320z M456,435.999
			c0,11.039-8.937,20.001-20.001,20.001H396c-11.064,0-20.001-8.962-20.001-20.001V396c0-11.039,8.937-20.001,20.001-20.001h39.999
			c11.064,0,20.001,8.962,20.001,20.001V435.999z"/>
	</g>
</g>
<g id="rss" style="display:none;">
	<g style="display:inline;">
		<path d="M68.987,375.451c37.547,0,67.956,30.457,67.956,68.004c0,37.544-30.409,67.953-67.956,67.953
			c-37.532,0-67.953-30.409-67.953-67.953C1.034,405.908,31.456,375.451,68.987,375.451z"/>
		<path d="M1.107,272.115c63.698,0,123.546,24.899,168.571,70.12c45.049,45.271,69.838,105.55,69.838,169.714h98.118
			c0-186.395-150.955-338.003-336.526-338.003V272.115z"/>
		<path d="M1.231,98.118c226.968,0,411.652,185.707,411.652,413.882h98.083c0-282.301-228.653-512-509.735-512V98.118z"/>
	</g>
</g>
<g id="play" style="display:none;">
	<path style="display:inline;" d="M178.494,16.272c-27.788-28.303-50.503-18.732-50.503,21.322v436.812
		c0,40.054,22.715,49.629,50.503,21.322l184.646-188.27c27.824-28.303,27.824-74.607,0-102.914L178.494,16.272z"/>
</g>
<g id="search" style="display:none;">
	<path style="display:inline;fill:#0B81C9;" d="M12.735,499.262c8.552,8.5,19.704,12.755,30.853,12.755
		c11.106,0,22.257-4.255,30.809-12.766L188.573,385.02c1.405-1.425,2.512-3.011,3.704-4.565
		c32.469,21.12,71.153,33.502,112.73,33.502C419.313,413.958,512,321.314,512,206.976C512,92.651,419.313-0.017,305.007-0.017
		c-114.349,0-206.982,92.667-206.982,206.993c0,41.599,12.363,80.241,33.492,112.678c-1.532,1.192-3.148,2.32-4.597,3.745
		L12.735,437.628C-4.245,454.651-4.245,482.238,12.735,499.262z M155.21,206.976c0-82.594,67.247-149.797,149.797-149.797
		c82.596,0,149.797,67.204,149.797,149.797c0,82.584-67.201,149.786-149.797,149.786C222.458,356.762,155.21,289.561,155.21,206.976
		z"/>
</g>
<g id="phone">
	<g>
		<defs>
			<rect id="SVGID_1_" x="0" y="0" width="512" height="512"/>
		</defs>
		<clipPath id="SVGID_2_">
			<use xlink:href="#SVGID_1_"  style="overflow:visible;"/>
		</clipPath>
		<path style="clip-path:url(#SVGID_2_);fill:#344762;" d="M419.343,388.671c4.865-11.781,7.331-23.017,7.331-33.664
			c0-2.443-0.24-4.211-0.676-5.345c-0.654-1.767-4.952-5.04-12.828-9.818c-7.898-4.778-17.737-10.298-29.496-16.515l-17.672-9.665
			c-1.113-0.676-3.229-2.116-6.327-4.32c-3.12-2.225-5.912-3.883-8.334-5.018c-2.465-1.091-4.778-1.658-7.003-1.658
			c-4.014,0-9.229,3.622-15.665,10.821c-6.458,7.221-12.785,14.486-19.003,21.839s-11.127,10.996-14.661,10.996
			c-1.571,0-3.403-0.371-5.52-1.178c-2.116-0.764-3.818-1.462-5.149-2.138c-1.353-0.676-3.229-1.724-5.672-3.163
			c-2.444-1.462-3.992-2.4-4.669-2.836c-21.991-12.217-40.95-26.289-56.833-42.172c-15.883-15.883-29.955-34.842-42.172-56.833
			c-0.436-0.676-1.374-2.204-2.836-4.669c-1.44-2.443-2.487-4.342-3.163-5.672c-0.655-1.331-1.396-3.033-2.16-5.171
			c-0.785-2.094-1.178-3.927-1.178-5.498c0-2.858,2.291-6.611,6.851-11.148c4.538-4.538,9.534-8.858,14.988-12.85
			c5.454-3.992,10.45-8.378,15.01-13.177c4.538-4.756,6.829-8.814,6.829-12.152c0-2.204-0.567-4.538-1.658-7.003
			c-1.134-2.443-2.793-5.192-5.018-8.334c-2.225-3.098-3.665-5.214-4.32-6.327c-0.676-1.331-2.334-4.494-4.996-9.512
			c-2.683-4.996-5.454-10.036-8.356-15.141c-2.88-5.127-5.825-10.385-8.814-15.839c-3.011-5.432-5.781-9.949-8.334-13.526
			c-2.574-3.534-4.407-5.52-5.498-5.978c-1.134-0.436-2.902-0.676-5.345-0.676c-10.668,0-21.882,2.465-33.664,7.33
			c-10.232,4.691-19.112,15.163-26.66,31.526c-7.57,16.319-11.345,30.827-11.345,43.481c0,3.556,0.284,7.33,0.851,11.345
			c0.545,3.992,1.091,7.396,1.658,10.167c0.545,2.771,1.549,6.458,2.989,10.996c1.462,4.56,2.553,7.832,3.338,9.818
			c0.785,2.007,2.16,5.672,4.167,11.018c2.007,5.323,3.229,8.64,3.665,9.992c13.33,36.456,37.394,72.061,72.17,106.816
			c34.776,34.82,70.381,58.862,106.838,72.192c1.331,0.458,4.669,1.658,9.992,3.665c5.345,2.007,9.01,3.382,10.996,4.145
			c2.007,0.807,5.28,1.898,9.839,3.338c4.56,1.484,8.225,2.487,10.996,3.011c2.771,0.567,6.174,1.134,10.167,1.658
			c4.014,0.567,7.789,0.851,11.345,0.851c12.654,0,27.162-3.796,43.503-11.323C404.159,407.804,414.674,398.903,419.343,388.671
			 M512,95.997v319.989c0,26.464-9.381,49.088-28.166,67.851c-18.784,18.763-41.387,28.166-67.829,28.166H95.994
			c-26.442,0-49.044-9.403-67.829-28.166C9.381,465.074,0,442.45,0,415.986V95.997c0-26.442,9.381-49.044,28.166-67.829
			S69.552,0.002,95.994,0.002h320.011c26.442,0,49.044,9.381,67.829,28.166C502.618,46.952,512,69.555,512,95.997"/>
	</g>
</g>
<g id="phone-inverse" style="display:none;">
	<g style="display:inline;">
		<defs>
			<rect id="SVGID_3_" x="85.05" y="85.05" width="344" height="344"/>
		</defs>
		<clipPath id="SVGID_4_">
			<use xlink:href="#SVGID_3_"  style="overflow:visible;"/>
		</clipPath>
		<path style="clip-path:url(#SVGID_4_);" d="M428.323,351.601c0.496,1.151,0.736,2.846,0.736,5.133
			c0,4.398-0.816,10.138-2.447,17.206c-1.631,7.1-3.342,12.681-5.133,16.743c-3.422,8.155-13.353,16.791-29.807,25.906
			c-15.303,8.299-30.463,12.457-45.447,12.457c-4.398,0-8.667-0.272-12.825-0.848c-4.142-0.576-8.827-1.599-14.04-3.054
			c-5.213-1.471-9.083-2.639-11.609-3.55c-2.527-0.88-7.052-2.575-13.56-5.005c-6.508-2.447-10.506-3.902-11.977-4.398
			c-15.959-5.693-30.207-12.457-42.744-20.277c-20.852-12.857-42.392-30.415-64.636-52.659
			c-22.228-22.228-39.786-43.752-52.643-64.62c-7.82-12.537-14.584-26.785-20.277-42.744c-0.496-1.487-1.967-5.469-4.398-11.993
			c-2.447-6.492-4.126-11.018-5.005-13.544c-0.911-2.527-2.079-6.38-3.55-11.61c-1.471-5.197-2.479-9.898-3.054-14.056
			c-0.576-4.142-0.864-8.427-0.864-12.825c0-14.968,4.158-30.143,12.473-45.447c9.115-16.439,17.75-26.385,25.89-29.807
			c4.078-1.791,9.659-3.486,16.743-5.117c7.084-1.615,12.825-2.447,17.222-2.447c2.271,0,3.982,0.256,5.133,0.72
			c2.926,0.991,7.244,7.196,12.953,18.582c1.791,3.102,4.222,7.484,7.324,13.177c3.086,5.725,5.949,10.874,8.555,15.527
			c2.607,4.637,5.133,9.019,7.564,13.065c0.496,0.656,1.919,2.687,4.286,6.109c2.351,3.422,4.11,6.332,5.245,8.683
			c1.135,2.367,1.711,4.685,1.711,6.956c0,3.278-2.319,7.34-6.956,12.217c-4.653,4.893-9.691,9.387-15.144,13.448
			c-5.469,4.078-10.522,8.395-15.16,12.953s-6.956,8.299-6.956,11.226c0,1.471,0.4,3.31,1.215,5.501s1.503,3.87,2.079,5.005
			c0.576,1.135,1.711,3.102,3.422,5.869c1.711,2.782,2.639,4.318,2.814,4.637c12.377,22.324,26.545,41.465,42.504,57.408
			c15.959,15.975,35.1,30.159,57.424,42.52c0.32,0.176,1.855,1.087,4.637,2.814c2.766,1.695,4.717,2.846,5.853,3.422
			c1.151,0.576,2.814,1.263,5.021,2.063c2.191,0.832,4.03,1.231,5.501,1.231c2.926,0,6.668-2.319,11.226-6.956
			c4.557-4.653,8.875-9.691,12.953-15.16c4.078-5.437,8.555-10.506,13.432-15.144c4.893-4.637,8.971-6.956,12.217-6.956
			c2.287,0,4.605,0.576,6.972,1.695c2.351,1.135,5.245,2.926,8.667,5.261c3.422,2.367,5.453,3.774,6.109,4.27
			c4.078,2.447,8.427,4.973,13.081,7.58c4.637,2.607,9.803,5.469,15.511,8.555c5.693,3.086,10.09,5.533,13.193,7.324
			C421.159,344.357,427.347,348.658,428.323,351.601"/>
	</g>
</g>
</svg>
