<?xml version="1.0" standalone="no"?>
<!DOCTYPE svg PUBLIC "-//W3C//DTD SVG 1.1//EN" "http://www.w3.org/Graphics/SVG/1.1/DTD/svg11.dtd">
<svg width="100%" height="100%" viewBox="0 0 1188 271" version="1.1" xmlns="http://www.w3.org/2000/svg" xmlns:xlink="http://www.w3.org/1999/xlink" xml:space="preserve" style="fill-rule:evenodd;clip-rule:evenodd;stroke-linejoin:round;stroke-miterlimit:1.41421;">
    <g transform="matrix(4.16667,0,0,4.16667,-218.472,-271.349)">
        <path d="M160.437,107.446L160.437,109.974L145.159,109.974L145.159,85.06L159.705,85.06L159.705,87.588L148.529,87.588L148.529,95.539L158.239,95.539L158.239,98.067L148.529,98.067L148.529,107.446L160.437,107.446Z" style="fill:rgb(119,186,0);fill-rule:nonzero;"/>
        <path d="M180.588,92.388C180.588,90.873 180.111,89.695 179.159,88.852C178.207,88.01 176.838,87.588 175.055,87.588L169.963,87.588L169.963,97.187L175.055,97.187C178.743,97.187 180.588,95.588 180.588,92.388M181.706,87.02C183.208,88.327 183.959,90.116 183.959,92.388C183.959,94.709 183.208,96.516 181.706,97.81C180.203,99.105 177.986,99.752 175.055,99.752L169.963,99.752L169.963,109.974L166.592,109.974L166.592,85.06L175.055,85.06C177.986,85.06 180.203,85.714 181.706,87.02" style="fill:rgb(119,186,0);fill-rule:nonzero;"/>
        <rect x="189.161" y="85.06" width="3.371" height="24.915" style="fill:rgb(119,186,0);fill-rule:nonzero;"/>
        <path d="M204.329,108.728C202.447,107.532 201.037,105.944 200.097,103.965C199.156,101.987 198.686,99.825 198.686,97.48C198.686,95.135 199.175,92.986 200.152,91.032C201.129,89.078 202.595,87.515 204.549,86.342C206.503,85.169 208.884,84.583 211.693,84.583C213.329,84.583 214.862,84.846 216.292,85.371C217.721,85.896 218.935,86.635 219.937,87.588L218.545,89.823C217.763,89.017 216.762,88.375 215.54,87.899C214.318,87.423 213.036,87.185 211.693,87.185C209.641,87.185 207.894,87.637 206.454,88.541C205.013,89.444 203.92,90.678 203.175,92.241C202.43,93.804 202.058,95.563 202.058,97.517C202.058,99.52 202.411,101.303 203.12,102.866C203.828,104.429 204.872,105.664 206.253,106.567C207.632,107.47 209.299,107.922 211.254,107.922C214.258,107.922 216.859,106.775 219.058,104.478L220.304,106.676C219.204,107.8 217.886,108.723 216.347,109.443C214.808,110.163 213.109,110.524 211.254,110.524C208.517,110.524 206.21,109.925 204.329,108.728" style="fill:rgb(119,186,0);fill-rule:nonzero;"/>
        <path d="M234.877,109.956C233.509,109.565 232.251,108.979 231.104,108.197L232.276,105.706C234.328,107.172 236.795,107.904 239.677,107.904C241.338,107.904 242.718,107.501 243.817,106.695C244.916,105.889 245.466,104.79 245.466,103.397C245.466,102.543 245.209,101.822 244.696,101.236C244.184,100.649 243.542,100.18 242.773,99.825C242.004,99.472 240.935,99.05 239.567,98.561C237.931,97.975 236.617,97.438 235.628,96.949C234.639,96.461 233.797,95.771 233.101,94.879C232.404,93.988 232.056,92.846 232.056,91.454C232.056,89.255 232.838,87.558 234.401,86.361C235.964,85.164 237.967,84.565 240.41,84.565C243.341,84.565 245.893,85.335 248.067,86.873L246.895,89.291C244.94,87.875 242.804,87.166 240.483,87.166C238.993,87.166 237.772,87.521 236.819,88.229C235.866,88.938 235.391,89.964 235.391,91.307C235.391,92.138 235.647,92.833 236.159,93.395C236.673,93.957 237.308,94.415 238.065,94.769C238.821,95.123 239.872,95.545 241.216,96.033C242.852,96.62 244.171,97.164 245.173,97.664C246.174,98.164 247.029,98.873 247.737,99.789C248.445,100.704 248.8,101.858 248.8,103.251C248.8,104.741 248.421,106.036 247.664,107.135C246.907,108.234 245.838,109.077 244.458,109.663C243.078,110.249 241.484,110.542 239.677,110.542C237.845,110.542 236.245,110.347 234.877,109.956" style="fill:rgb(119,186,0);fill-rule:nonzero;"/>
        <path d="M258.472,108.71C256.59,107.514 255.18,105.926 254.24,103.947C253.299,101.969 252.829,99.807 252.829,97.462C252.829,95.117 253.318,92.968 254.295,91.014C255.272,89.06 256.738,87.497 258.692,86.324C260.646,85.151 263.027,84.565 265.836,84.565C267.472,84.565 269.005,84.828 270.435,85.353C271.864,85.878 273.078,86.617 274.08,87.57L272.688,89.805C271.906,88.999 270.905,88.357 269.683,87.881C268.461,87.405 267.179,87.167 265.836,87.167C263.784,87.167 262.037,87.619 260.597,88.523C259.156,89.426 258.063,90.66 257.318,92.223C256.573,93.786 256.201,95.545 256.201,97.499C256.201,99.502 256.554,101.285 257.263,102.848C257.971,104.411 259.015,105.646 260.396,106.549C261.775,107.452 263.442,107.904 265.397,107.904C268.401,107.904 271.002,106.757 273.201,104.46L274.447,106.658C273.347,107.782 272.029,108.705 270.49,109.425C268.951,110.145 267.252,110.506 265.397,110.506C262.66,110.506 260.353,109.907 258.472,108.71" style="fill:rgb(119,186,0);fill-rule:nonzero;"/>
        <path d="M292.143,99.698L288.076,88.633L284.009,99.698L292.143,99.698ZM293.059,102.226L283.056,102.226L280.236,109.957L276.865,109.957L286.538,84.713L289.652,84.713L299.361,109.957L295.916,109.957L293.059,102.226Z" style="fill:rgb(119,186,0);fill-rule:nonzero;"/>
        <path d="M324.312,85.042L324.312,109.957L321.381,109.994L307.312,90.428L307.495,99.111L307.495,109.957L304.125,109.957L304.125,85.042L307.055,85.042L321.124,104.644L320.941,94.935L320.941,85.042L324.312,85.042Z" style="fill:rgb(119,186,0);fill-rule:nonzero;"/>
        <path d="M52.433,97.554L84.457,97.554L90.09,89.663L74.163,66.859L52.433,97.554Z" style="fill:rgb(52,71,98);fill-rule:nonzero;"/>
        <path d="M52.433,97.554L74.141,128.219L74.192,128.207L89.977,105.606L84.457,97.554L52.433,97.554Z" style="fill:rgb(119,186,0);fill-rule:nonzero;"/>
        <path d="M75.391,129.984L106.692,129.984L91.186,107.368L75.391,129.984Z" style="fill:rgb(74,94,103);fill-rule:nonzero;"/>
        <path d="M91.186,107.369L106.692,129.985L130.758,97.554L98.041,97.554L91.186,107.369Z" style="fill:rgb(52,71,98);fill-rule:nonzero;"/>
        <path d="M107.608,65.124L75.391,65.124L91.323,87.936L107.608,65.124Z" style="fill:rgb(95,155,38);fill-rule:nonzero;"/>
        <path d="M98.04,97.554L130.758,97.554L107.607,65.124L91.323,87.936L98.04,97.554Z" style="fill:rgb(119,186,0);fill-rule:nonzero;"/>
        <path d="M331.047,104.996L329.166,104.996L329.166,109.957L328.542,109.957L328.542,104.996L326.647,104.996L326.647,104.516L331.047,104.516L331.047,104.996Z" style="fill:rgb(119,186,0);fill-rule:nonzero;"/>
        <path d="M337.382,104.516L337.382,109.957L336.766,109.957L336.766,107.981L336.79,105.549L335.022,108.133L334.622,108.133L332.854,105.541L332.878,107.981L332.878,109.957L332.262,109.957L332.262,104.516L332.806,104.516L334.822,107.461L336.838,104.516L337.382,104.516Z" style="fill:rgb(119,186,0);fill-rule:nonzero;"/>
    </g>
</svg>
